<svg width="165" height="63" viewBox="0 0 165 63" fill="none" xmlns="http://www.w3.org/2000/svg">
<g clip-path="url(#clip0_41_51)">
<path d="M16.1118 11.6939C16.1118 13.2834 16.1118 52.9306 16.1118 52.9306C16.1118 55.7456 13.9965 55.6895 13.9965 55.6895C10.3581 54.3101 9.25812 51.8173 9.25812 49.0023V15.6222C9.25812 12.8073 9.96323 10.4055 13.4606 8.39579C16.6759 6.55417 19.313 6.99532 19.313 6.99532C16.2951 7.2474 16.1118 10.1044 16.1118 11.6939Z" fill="url(#paint0_linear_41_51)"/>
<path d="M25.3558 6.39313C25.3699 8.12971 25.3558 58.2384 25.3558 58.2384C25.3558 59.2047 22.9091 60.8223 22.9091 60.8223C19.4258 59.4008 18.5021 57.125 18.5021 54.3101V10.3214C18.5021 7.5065 20.1239 5.13271 22.4649 3.50117C24.8129 1.86262 26.8366 1.26742 29.241 1.7926C26.477 1.69457 25.3417 4.32745 25.3558 6.39313Z" fill="url(#paint1_linear_41_51)"/>
<path d="M6.86071 18.1991C6.7902 22.5895 6.86071 47.6299 6.86071 47.6299C6.79725 49.6395 -0.0493878 50.921 0.00702112 43.7086C0.00702112 43.7086 -0.0141322 29.8159 0.00702112 20.916C0.0281745 11.6939 9.78693 12.2821 9.78693 12.2821C7.57993 12.8003 6.91712 15.1811 6.86071 18.1991Z" fill="url(#paint2_linear_41_51)"/>
<path d="M51.6424 32.0777L16.1752 52.4125C13.7214 53.8199 11.7824 54.5692 10.351 53.0077C13.799 58.7986 18.5656 58.9036 22.5283 56.6279L51.6353 39.9413C54.0891 38.5338 55.5981 35.936 55.5981 33.121C55.6122 33.121 54.0962 30.6702 51.6424 32.0777Z" fill="url(#paint3_linear_41_51)"/>
<path d="M51.6424 21.4762L6.43764 47.3988C3.47617 49.0934 1.03648 48.4351 0.15509 45.4942C0.994174 53.3368 7.31198 54.7582 11.9375 52.1044L51.6494 29.3328C54.1032 27.9253 55.6121 25.3274 55.6121 22.5125V20.7759V20.3418C55.5557 19.4315 55.3372 18.5492 54.9705 17.7369C54.6743 18.4231 54.2865 19.0744 53.8071 19.6555C53.2148 20.3698 52.4815 20.993 51.6424 21.4762Z" fill="url(#paint4_linear_41_51)"/>
<path d="M51.6424 42.6862L24.9327 58.0003C22.4789 59.4078 21.0546 59.6389 19.7572 58.5675C22.6623 62.5869 27.6897 64.2744 31.7723 61.9357L51.6494 50.5359C54.7308 48.7713 55.6051 46.5305 55.6051 43.7226C55.6121 43.7226 54.0962 41.2788 51.6424 42.6862Z" fill="url(#paint5_linear_41_51)"/>
<path d="M15.6675 11.946C15.6675 11.946 49.5975 31.4335 51.6282 32.5679C53.6589 33.6952 55.3301 35.6209 54.3359 37.3995C55.6474 35.845 57.6922 29.1857 51.6282 24.7113C44.2316 19.2564 22.5212 8.02469 22.5212 8.02469C20.0674 6.61722 17.0425 6.61722 14.5887 8.02469C14.5887 8.01769 13.2137 10.5385 15.6675 11.946Z" fill="url(#paint6_linear_41_51)"/>
<path d="M6.42352 17.2467L51.6353 43.1694C52.4744 43.6525 55.3653 46.1314 54.1596 48.4772C58.2916 43.0924 54.35 36.7833 51.6353 35.3128L13.2772 13.3184C11.4016 12.2471 9.20166 11.988 7.17094 12.5552C6.04276 12.8703 5.3729 14.0117 5.58443 15.16C5.74661 16.0633 6.0075 17.0087 6.42352 17.2467Z" fill="url(#paint7_linear_41_51)"/>
<path d="M24.9186 6.64522L51.6283 21.9593C54.082 23.3668 54.9916 25.7266 54.4134 26.6649C57.3185 23.0237 56.1198 16.6726 51.6353 14.1027C47.1508 11.5328 31.7652 2.70991 31.7652 2.70991C29.3115 1.30944 26.2936 1.30944 23.8398 2.71691C23.8398 2.70991 22.4648 5.23775 24.9186 6.64522Z" fill="url(#paint8_linear_41_51)"/>
<mask id="mask0_41_51" style="mask-type:luminance" maskUnits="userSpaceOnUse" x="0" y="0" width="48" height="44">
<path d="M47.5598 16.5745L0 43.0574V15.3701L27.8801 0L47.5598 16.5745Z" fill="white"/>
</mask>
<g mask="url(#mask0_41_51)">
<path d="M16.1118 11.6939C16.1118 13.2834 16.1118 52.9306 16.1118 52.9306C16.1118 55.7456 13.9965 55.6895 13.9965 55.6895C10.3581 54.3101 9.25812 51.8173 9.25812 49.0023V15.6222C9.25812 12.8073 9.96323 10.4055 13.4606 8.39579C16.6759 6.55417 19.313 6.99532 19.313 6.99532C16.2951 7.2474 16.1118 10.1044 16.1118 11.6939Z" fill="url(#paint9_linear_41_51)"/>
<path d="M25.3558 6.39313C25.3699 8.12971 25.3558 58.2384 25.3558 58.2384C25.3558 59.2047 22.9091 60.8223 22.9091 60.8223C19.4258 59.4008 18.5021 57.125 18.5021 54.3101V10.3214C18.5021 7.5065 20.1239 5.13271 22.4649 3.50117C24.8129 1.86262 26.8366 1.26742 29.241 1.7926C26.477 1.69457 25.3417 4.32745 25.3558 6.39313Z" fill="url(#paint10_linear_41_51)"/>
<path d="M6.86071 18.1991C6.7902 22.5895 6.86071 47.6299 6.86071 47.6299C6.79725 49.6395 -0.0493878 50.921 0.00702112 43.7086C0.00702112 43.7086 -0.0141322 29.8159 0.00702112 20.916C0.0281745 11.6939 9.78693 12.2821 9.78693 12.2821C7.57993 12.8003 6.91712 15.1811 6.86071 18.1991Z" fill="url(#paint11_linear_41_51)"/>
</g>
</g>
<path d="M78.8828 40.293C76.4141 40.293 74.4609 39.5156 73.0234 37.9609C71.5938 36.3984 70.8789 34.2578 70.8789 31.5391C70.8789 28.8281 71.5977 26.6953 73.0352 25.1406C74.4727 23.5781 76.4219 22.7969 78.8828 22.7969C80.2266 22.7969 81.4453 23.0625 82.5391 23.5938C83.6406 24.125 84.5234 24.875 85.1875 25.8438C85.8516 26.8125 86.2266 27.918 86.3125 29.1602H82.8672C82.7031 28.1211 82.2539 27.2891 81.5195 26.6641C80.793 26.0391 79.9141 25.7266 78.8828 25.7266C77.5469 25.7266 76.4805 26.25 75.6836 27.2969C74.8867 28.3438 74.4883 29.7539 74.4883 31.5273C74.4883 33.332 74.8828 34.7578 75.6719 35.8047C76.4609 36.8438 77.5352 37.3633 78.8945 37.3633C79.9414 37.3633 80.8203 37.0742 81.5312 36.4961C82.2422 35.918 82.6914 35.1289 82.8789 34.1289H86.3242C86.1289 36.0117 85.3594 37.5117 84.0156 38.6289C82.6719 39.7383 80.9609 40.293 78.8828 40.293ZM98.5352 38.5352C97.418 39.6914 95.9023 40.2695 93.9883 40.2695C92.0742 40.2695 90.5586 39.6875 89.4414 38.5234C88.3242 37.3594 87.7656 35.7539 87.7656 33.707C87.7656 31.6836 88.3281 30.0898 89.4531 28.9258C90.5859 27.7539 92.0977 27.168 93.9883 27.168C95.8867 27.168 97.3984 27.7539 98.5234 28.9258C99.6484 30.0898 100.211 31.6836 100.211 33.707C100.211 35.7617 99.6523 37.3711 98.5352 38.5352ZM93.9883 37.6562C94.832 37.6562 95.5 37.3125 95.9922 36.625C96.4844 35.9375 96.7305 34.9688 96.7305 33.7188C96.7305 32.4844 96.4844 31.5195 95.9922 30.8242C95.5 30.1289 94.832 29.7812 93.9883 29.7812C93.1445 29.7812 92.4727 30.1289 91.9727 30.8242C91.4805 31.5195 91.2344 32.4844 91.2344 33.7188C91.2344 34.9688 91.4805 35.9375 91.9727 36.625C92.4648 37.3125 93.1367 37.6562 93.9883 37.6562ZM106.645 40.1992C105.074 40.1992 103.828 39.6172 102.906 38.4531C101.984 37.2891 101.523 35.7031 101.523 33.6953C101.523 31.7031 101.984 30.1289 102.906 28.9727C103.836 27.8164 105.09 27.2383 106.668 27.2383C107.559 27.2383 108.34 27.4531 109.012 27.8828C109.691 28.3125 110.188 28.8828 110.5 29.5938H110.57V23.0898H113.992V40H110.617V37.8438H110.559C110.246 38.5547 109.742 39.125 109.047 39.5547C108.352 39.9844 107.551 40.1992 106.645 40.1992ZM107.805 29.9805C106.945 29.9805 106.266 30.3164 105.766 30.9883C105.273 31.6602 105.027 32.5703 105.027 33.7188C105.027 34.875 105.273 35.7852 105.766 36.4492C106.266 37.1133 106.945 37.4453 107.805 37.4453C108.656 37.4453 109.332 37.1133 109.832 36.4492C110.34 35.7773 110.594 34.8672 110.594 33.7188C110.594 32.5781 110.34 31.6719 109.832 31C109.332 30.3203 108.656 29.9805 107.805 29.9805ZM121.914 29.6992C121.172 29.6992 120.551 29.9531 120.051 30.4609C119.559 30.9688 119.281 31.6172 119.219 32.4062H124.551C124.512 31.6016 124.25 30.9492 123.766 30.4492C123.289 29.9492 122.672 29.6992 121.914 29.6992ZM124.598 36.1562H127.738C127.551 37.3906 126.934 38.3867 125.887 39.1445C124.848 39.8945 123.555 40.2695 122.008 40.2695C120.078 40.2695 118.562 39.6914 117.461 38.5352C116.367 37.3789 115.82 35.793 115.82 33.7773C115.82 31.7695 116.367 30.168 117.461 28.9727C118.555 27.7695 120.027 27.168 121.879 27.168C123.699 27.168 125.148 27.7383 126.227 28.8789C127.305 30.0195 127.844 31.5469 127.844 33.4609V34.5039H119.184V34.7148C119.184 35.6133 119.445 36.3438 119.969 36.9062C120.5 37.4609 121.199 37.7383 122.066 37.7383C122.691 37.7383 123.23 37.5977 123.684 37.3164C124.137 37.0273 124.441 36.6406 124.598 36.1562ZM147.812 40H144.66V28.5859H144.566L139.973 39.8359H137.746L133.152 28.5859H133.059V40H129.906V23.0898H134.008L138.812 35.0781H138.906L143.711 23.0898H147.812V40ZM150.625 23.0898H157.504C159.246 23.0898 160.656 23.6211 161.734 24.6836C162.82 25.7461 163.363 27.1445 163.363 28.8789C163.363 30.6055 162.805 32.0039 161.688 33.0742C160.57 34.1367 159.117 34.668 157.328 34.668H154.164V40H150.625V23.0898ZM154.164 25.8906V31.9023H156.555C157.57 31.9023 158.359 31.6406 158.922 31.1172C159.484 30.5938 159.766 29.8516 159.766 28.8906C159.766 27.9297 159.484 27.1914 158.922 26.6758C158.367 26.1523 157.582 25.8906 156.566 25.8906H154.164Z" fill="white"/>
<defs>
<linearGradient id="paint0_linear_41_51" x1="5.58688" y1="11.7904" x2="21.3201" y2="43.3138" gradientUnits="userSpaceOnUse">
<stop offset="0.00534759" stop-color="#FF60D6"/>
<stop offset="0.508" stop-color="#EC008C"/>
<stop offset="0.5962" stop-color="#E8008A"/>
<stop offset="0.6771" stop-color="#DD0083"/>
<stop offset="0.7551" stop-color="#CB0078"/>
<stop offset="0.8314" stop-color="#B00069"/>
<stop offset="0.9065" stop-color="#8F0055"/>
<stop offset="0.9796" stop-color="#66003D"/>
<stop offset="1" stop-color="#590035"/>
</linearGradient>
<linearGradient id="paint1_linear_41_51" x1="13.1909" y1="7.95216" x2="28.9241" y2="39.4755" gradientUnits="userSpaceOnUse">
<stop offset="0.00534759" stop-color="#FF60D6"/>
<stop offset="0.508" stop-color="#EC008C"/>
<stop offset="0.5962" stop-color="#E8008A"/>
<stop offset="0.6771" stop-color="#DD0083"/>
<stop offset="0.7551" stop-color="#CB0078"/>
<stop offset="0.8314" stop-color="#B00069"/>
<stop offset="0.9065" stop-color="#8F0055"/>
<stop offset="0.9796" stop-color="#66003D"/>
<stop offset="1" stop-color="#590035"/>
</linearGradient>
<linearGradient id="paint2_linear_41_51" x1="-1.91519" y1="15.5345" x2="13.818" y2="47.0577" gradientUnits="userSpaceOnUse">
<stop offset="0.00534759" stop-color="#FF60D6"/>
<stop offset="0.508" stop-color="#EC008C"/>
<stop offset="0.5962" stop-color="#E8008A"/>
<stop offset="0.6771" stop-color="#DD0083"/>
<stop offset="0.7551" stop-color="#CB0078"/>
<stop offset="0.8314" stop-color="#B00069"/>
<stop offset="0.9065" stop-color="#8F0055"/>
<stop offset="0.9796" stop-color="#66003D"/>
<stop offset="1" stop-color="#590035"/>
</linearGradient>
<linearGradient id="paint3_linear_41_51" x1="22.194" y1="60.7954" x2="38.6057" y2="35.2396" gradientUnits="userSpaceOnUse">
<stop stop-color="#FFB561"/>
<stop offset="0.4866" stop-color="#E9583F"/>
<stop offset="0.5432" stop-color="#E2553E"/>
<stop offset="0.6248" stop-color="#CF4C3C"/>
<stop offset="0.7217" stop-color="#B03D38"/>
<stop offset="0.8302" stop-color="#842833"/>
<stop offset="0.9469" stop-color="#4D0D2C"/>
<stop offset="1" stop-color="#310029"/>
</linearGradient>
<linearGradient id="paint4_linear_41_51" x1="14.4349" y1="55.8126" x2="30.8467" y2="30.2567" gradientUnits="userSpaceOnUse">
<stop stop-color="#FFB561"/>
<stop offset="0.4866" stop-color="#E9583F"/>
<stop offset="0.5432" stop-color="#E2553E"/>
<stop offset="0.6248" stop-color="#CF4C3C"/>
<stop offset="0.7217" stop-color="#B03D38"/>
<stop offset="0.8302" stop-color="#842833"/>
<stop offset="0.9469" stop-color="#4D0D2C"/>
<stop offset="1" stop-color="#310029"/>
</linearGradient>
<linearGradient id="paint5_linear_41_51" x1="29.278" y1="65.3447" x2="45.6898" y2="39.7889" gradientUnits="userSpaceOnUse">
<stop stop-color="#FFB561"/>
<stop offset="0.4866" stop-color="#E9583F"/>
<stop offset="0.5432" stop-color="#E2553E"/>
<stop offset="0.6248" stop-color="#CF4C3C"/>
<stop offset="0.7217" stop-color="#B03D38"/>
<stop offset="0.8302" stop-color="#842833"/>
<stop offset="0.9469" stop-color="#4D0D2C"/>
<stop offset="1" stop-color="#310029"/>
</linearGradient>
<linearGradient id="paint6_linear_41_51" x1="55.0314" y1="26.3567" x2="19.0053" y2="17.9322" gradientUnits="userSpaceOnUse">
<stop stop-color="#D64AFF"/>
<stop offset="0.262" stop-color="#B000FF"/>
<stop offset="0.384" stop-color="#AC00FC"/>
<stop offset="0.4959" stop-color="#A100F1"/>
<stop offset="0.6039" stop-color="#8F00DF"/>
<stop offset="0.7094" stop-color="#7400C6"/>
<stop offset="0.8132" stop-color="#5300A6"/>
<stop offset="0.9143" stop-color="#2A0080"/>
<stop offset="1" stop-color="#010059"/>
</linearGradient>
<linearGradient id="paint7_linear_41_51" x1="52.9724" y1="35.1618" x2="16.9463" y2="26.7373" gradientUnits="userSpaceOnUse">
<stop stop-color="#D64AFF"/>
<stop offset="0.262" stop-color="#B000FF"/>
<stop offset="0.384" stop-color="#AC00FC"/>
<stop offset="0.4959" stop-color="#A100F1"/>
<stop offset="0.6039" stop-color="#8F00DF"/>
<stop offset="0.7094" stop-color="#7400C6"/>
<stop offset="0.8132" stop-color="#5300A6"/>
<stop offset="0.9143" stop-color="#2A0080"/>
<stop offset="1" stop-color="#010059"/>
</linearGradient>
<linearGradient id="paint8_linear_41_51" x1="57.0481" y1="17.7327" x2="21.0222" y2="9.30824" gradientUnits="userSpaceOnUse">
<stop stop-color="#D64AFF"/>
<stop offset="0.262" stop-color="#B000FF"/>
<stop offset="0.384" stop-color="#AC00FC"/>
<stop offset="0.4959" stop-color="#A100F1"/>
<stop offset="0.6039" stop-color="#8F00DF"/>
<stop offset="0.7094" stop-color="#7400C6"/>
<stop offset="0.8132" stop-color="#5300A6"/>
<stop offset="0.9143" stop-color="#2A0080"/>
<stop offset="1" stop-color="#010059"/>
</linearGradient>
<linearGradient id="paint9_linear_41_51" x1="5.58688" y1="11.7904" x2="21.3201" y2="43.3138" gradientUnits="userSpaceOnUse">
<stop offset="0.00534759" stop-color="#FF60D6"/>
<stop offset="0.508" stop-color="#EC008C"/>
<stop offset="0.5962" stop-color="#E8008A"/>
<stop offset="0.6771" stop-color="#DD0083"/>
<stop offset="0.7551" stop-color="#CB0078"/>
<stop offset="0.8314" stop-color="#B00069"/>
<stop offset="0.9065" stop-color="#8F0055"/>
<stop offset="0.9796" stop-color="#66003D"/>
<stop offset="1" stop-color="#590035"/>
</linearGradient>
<linearGradient id="paint10_linear_41_51" x1="13.1909" y1="7.95216" x2="28.9241" y2="39.4755" gradientUnits="userSpaceOnUse">
<stop offset="0.00534759" stop-color="#FF60D6"/>
<stop offset="0.508" stop-color="#EC008C"/>
<stop offset="0.5962" stop-color="#E8008A"/>
<stop offset="0.6771" stop-color="#DD0083"/>
<stop offset="0.7551" stop-color="#CB0078"/>
<stop offset="0.8314" stop-color="#B00069"/>
<stop offset="0.9065" stop-color="#8F0055"/>
<stop offset="0.9796" stop-color="#66003D"/>
<stop offset="1" stop-color="#590035"/>
</linearGradient>
<linearGradient id="paint11_linear_41_51" x1="-1.91519" y1="15.5345" x2="13.818" y2="47.0577" gradientUnits="userSpaceOnUse">
<stop offset="0.00534759" stop-color="#FF60D6"/>
<stop offset="0.508" stop-color="#EC008C"/>
<stop offset="0.5962" stop-color="#E8008A"/>
<stop offset="0.6771" stop-color="#DD0083"/>
<stop offset="0.7551" stop-color="#CB0078"/>
<stop offset="0.8314" stop-color="#B00069"/>
<stop offset="0.9065" stop-color="#8F0055"/>
<stop offset="0.9796" stop-color="#66003D"/>
<stop offset="1" stop-color="#590035"/>
</linearGradient>
<clipPath id="clip0_41_51">
<rect width="56" height="63" fill="white"/>
</clipPath>
</defs>
</svg>
