<svg width="28" height="31" viewBox="0 0 28 31" fill="none" xmlns="http://www.w3.org/2000/svg">
<path fill-rule="evenodd" clip-rule="evenodd" d="M7.33335 7.50001C7.33335 3.81811 10.3181 0.833344 14 0.833344C17.6819 0.833344 20.6667 3.81811 20.6667 7.50001C20.6667 11.1819 17.6819 14.1667 14 14.1667C10.3181 14.1667 7.33335 11.1819 7.33335 7.50001ZM14 3.50001C11.7909 3.50001 10 5.29087 10 7.50001C10 9.70915 11.7909 11.5 14 11.5C16.2092 11.5 18 9.70915 18 7.50001C18 5.29087 16.2092 3.50001 14 3.50001Z" fill="white"/>
<path fill-rule="evenodd" clip-rule="evenodd" d="M0.666687 28.8333C0.666687 21.4695 6.63622 15.5 14 15.5C21.3638 15.5 27.3334 21.4695 27.3334 28.8333V30.1667H0.666687V28.8333ZM3.41588 27.5H24.5842C23.928 22.2383 19.4395 18.1667 14 18.1667C8.56053 18.1667 4.07201 22.2383 3.41588 27.5Z" fill="white"/>
</svg>
